<svg xmlns="http://www.w3.org/2000/svg" width="49" height="39" fill="none" viewBox="0 0 49 39"><g clip-path="url(#clip0_193_26454)"><path fill="#111" d="M0.978516 8.08764L0.978516 29.9712C0.978516 34.4377 4.59937 38.0586 9.06592 38.0586H40.4641C44.9306 38.0586 48.5515 34.4377 48.5515 29.9712V8.08764C48.5515 3.6211 44.9306 0.000244141 40.4641 0.000244141H9.06592C4.59937 0.000244141 0.978516 3.6211 0.978516 8.08764Z"/><path fill="url(#paint0_linear_193_26454)" d="M0.978516 8.08764L0.978516 29.9712C0.978516 34.4377 4.59937 38.0586 9.06592 38.0586H40.4641C44.9306 38.0586 48.5515 34.4377 48.5515 29.9712V8.08764C48.5515 3.6211 44.9306 0.000244141 40.4641 0.000244141H9.06592C4.59937 0.000244141 0.978516 3.6211 0.978516 8.08764Z"/><path fill="url(#paint1_linear_193_26454)" d="M12.872 9.51439C12.872 8.2007 11.8071 7.13574 10.4934 7.13574C9.1797 7.13574 8.11475 8.2007 8.11475 9.51439C8.11475 10.8281 9.1797 11.893 10.4934 11.893C11.8071 11.893 12.872 10.8281 12.872 9.51439Z"/><path fill="url(#paint2_linear_193_26454)" d="M12.872 9.51439C12.872 8.2007 11.8071 7.13574 10.4934 7.13574C9.1797 7.13574 8.11475 8.2007 8.11475 9.51439C8.11475 10.8281 9.1797 11.893 10.4934 11.893C11.8071 11.893 12.872 10.8281 12.872 9.51439Z"/><path fill="url(#paint3_linear_193_26454)" d="M12.872 9.51439C12.872 8.2007 11.8071 7.13574 10.4934 7.13574C9.1797 7.13574 8.11475 8.2007 8.11475 9.51439C8.11475 10.8281 9.1797 11.893 10.4934 11.893C11.8071 11.893 12.872 10.8281 12.872 9.51439Z"/><path fill="url(#paint4_linear_193_26454)" d="M12.872 28.5281C12.872 27.2144 11.8071 26.1494 10.4934 26.1494C9.1797 26.1494 8.11475 27.2144 8.11475 28.5281C8.11475 29.8418 9.1797 30.9067 10.4934 30.9067C11.8071 30.9067 12.872 29.8418 12.872 28.5281Z"/><path fill="url(#paint5_linear_193_26454)" d="M41.4155 19.0295C41.4155 17.7158 40.3505 16.6509 39.0368 16.6509C37.7232 16.6509 36.6582 17.7158 36.6582 19.0295C36.6582 20.3432 37.7232 21.4082 39.0368 21.4082C40.3505 21.4082 41.4155 20.3432 41.4155 19.0295Z"/><path fill="url(#paint6_linear_193_26454)" d="M41.4155 19.0295C41.4155 17.7158 40.3505 16.6509 39.0368 16.6509C37.7232 16.6509 36.6582 17.7158 36.6582 19.0295C36.6582 20.3432 37.7232 21.4082 39.0368 21.4082C40.3505 21.4082 41.4155 20.3432 41.4155 19.0295Z"/><path fill="url(#paint7_linear_193_26454)" d="M39.0367 7.13574H20.0076C18.6939 7.13574 17.6289 8.2007 17.6289 9.51439C17.6289 10.8281 18.6939 11.893 20.0076 11.893H39.0367C40.3504 11.893 41.4154 10.8281 41.4154 9.51439C41.4154 8.2007 40.3504 7.13574 39.0367 7.13574Z"/><path fill="url(#paint8_linear_193_26454)" d="M39.0367 26.1494H20.0076C18.6939 26.1494 17.6289 27.2144 17.6289 28.5281C17.6289 29.8418 18.6939 30.9067 20.0076 30.9067H39.0367C40.3504 30.9067 41.4154 29.8418 41.4154 28.5281C41.4154 27.2144 40.3504 26.1494 39.0367 26.1494Z"/><path fill="url(#paint9_linear_193_26454)" d="M29.5226 16.6509H10.4934C9.1797 16.6509 8.11475 17.7158 8.11475 19.0295C8.11475 20.3432 9.1797 21.4082 10.4934 21.4082H29.5226C30.8363 21.4082 31.9012 20.3432 31.9012 19.0295C31.9012 17.7158 30.8363 16.6509 29.5226 16.6509Z"/></g><defs><linearGradient id="paint0_linear_193_26454" x1="24.765" x2="24.765" y1="0" y2="38.098" gradientUnits="userSpaceOnUse"><stop stop-color="#1D273D"/><stop offset="1" stop-color="#0D0F13"/></linearGradient><linearGradient id="paint1_linear_193_26454" x1="8.848" x2="12.08" y1="11.861" y2="7.539" gradientUnits="userSpaceOnUse"><stop stop-color="#4462FE"/><stop offset="1" stop-color="#7D69FA"/></linearGradient><linearGradient id="paint2_linear_193_26454" x1="8.533" x2="12.528" y1="11.895" y2="11.691" gradientUnits="userSpaceOnUse"><stop stop-color="#3757FD"/><stop offset="1" stop-color="#6980FA"/></linearGradient><linearGradient id="paint3_linear_193_26454" x1="8.533" x2="12.528" y1="11.895" y2="11.691" gradientUnits="userSpaceOnUse"><stop stop-color="#2447FF"/><stop offset="1" stop-color="#6980FA"/></linearGradient><linearGradient id="paint4_linear_193_26454" x1="8.788" x2="11.962" y1="30.13" y2="26.767" gradientUnits="userSpaceOnUse"><stop stop-color="#BC3EE6"/><stop offset="1" stop-color="#D972F1"/></linearGradient><linearGradient id="paint5_linear_193_26454" x1="37.619" x2="40.554" y1="20.607" y2="17.484" gradientUnits="userSpaceOnUse"><stop stop-color="#29BDFF"/><stop offset="1" stop-color="#96E7FB"/></linearGradient><linearGradient id="paint6_linear_193_26454" x1="37.04" x2="41.171" y1="21.376" y2="21.177" gradientUnits="userSpaceOnUse"><stop stop-color="#23BBFF"/><stop offset="1" stop-color="#85E7FF"/></linearGradient><linearGradient id="paint7_linear_193_26454" x1="19.539" x2="39.115" y1="11.861" y2="7.164" gradientUnits="userSpaceOnUse"><stop stop-color="#23BBFF"/><stop offset="1" stop-color="#85E7FF"/></linearGradient><linearGradient id="paint8_linear_193_26454" x1="19.719" x2="38.514" y1="30.909" y2="26.092" gradientUnits="userSpaceOnUse"><stop stop-color="#2447FF"/><stop offset="1" stop-color="#6980FA"/></linearGradient><linearGradient id="paint9_linear_193_26454" x1="11.31" x2="29.264" y1="21.445" y2="16.629" gradientUnits="userSpaceOnUse"><stop stop-color="#6634FF"/><stop offset="1" stop-color="#9C6DFF"/></linearGradient><clipPath id="clip0_193_26454"><rect width="47.573" height="38.058" fill="#fff" transform="translate(0.978516)"/></clipPath></defs></svg>